<?xml version="1.0" standalone="no"?>
<!DOCTYPE svg PUBLIC "-//W3C//DTD SVG 20010904//EN"
 "http://www.w3.org/TR/2001/REC-SVG-20010904/DTD/svg10.dtd">
<svg version="1.0" xmlns="http://www.w3.org/2000/svg"
 width="1500.000000pt" height="1500.000000pt" viewBox="0 0 1500.000000 1500.000000"
 preserveAspectRatio="xMidYMid meet">
<metadata>
Created by potrace 1.15, written by Peter Selinger 2001-2017
</metadata>
<g transform="translate(0.000000,1500.000000) scale(0.100000,-0.100000)"
fill="#000000" stroke="none">
<path d="M12369 13321 c7 -5 9 -11 5 -13 -5 -3 -4 -3 3 -2 6 2 14 -4 17 -13 4
-10 2 -13 -8 -10 -20 8 -28 -20 -11 -37 19 -19 19 -23 -5 -48 -11 -12 -20 -28
-20 -35 0 -8 -4 -12 -9 -9 -5 3 -11 -3 -14 -14 -3 -11 -1 -20 3 -20 14 0 -2
-44 -23 -62 -22 -20 -31 -23 -22 -9 3 5 1 12 -5 16 -6 3 -10 -4 -10 -17 l0
-22 -16 23 -17 23 -22 -23 c-12 -13 -32 -31 -43 -38 -25 -17 -35 -38 -22 -46
5 -3 20 6 34 20 22 22 26 23 26 8 0 -10 -6 -25 -13 -33 -17 -20 -74 -60 -86
-60 -12 0 -2 32 13 42 6 4 7 10 3 15 -4 4 -16 2 -25 -5 -9 -7 -25 -15 -34 -18
-10 -4 -18 -12 -18 -19 0 -7 -12 -16 -27 -20 -24 -6 -25 -8 -11 -16 12 -7 25
-5 41 6 22 14 37 12 37 -6 0 -12 -80 -89 -91 -89 -6 0 -7 -4 -4 -10 3 -5 -3
-10 -14 -10 -11 0 -22 -9 -26 -20 -3 -11 -13 -20 -21 -20 -8 0 -14 -4 -14 -10
0 -5 -6 -10 -13 -10 -8 0 -19 -11 -25 -25 -6 -14 -19 -25 -28 -25 -9 0 -30
-11 -46 -26 -17 -14 -44 -28 -60 -31 -21 -4 -26 -8 -16 -14 10 -7 11 -9 0 -9
-7 0 -10 -5 -6 -12 4 -7 3 -8 -4 -4 -21 13 -13 35 28 77 22 23 40 46 40 51 0
5 4 7 9 4 17 -11 33 24 31 71 -3 69 -2 73 16 73 19 0 44 24 44 42 0 10 -3 9
-10 -2 -5 -8 -10 -10 -10 -5 0 15 -43 16 -52 2 -6 -9 -8 -8 -8 3 0 13 -1 13
-10 0 -8 -13 -10 -13 -10 2 0 9 5 18 12 20 6 2 9 10 7 17 -4 11 -8 10 -21 -2
-9 -9 -24 -14 -36 -10 -17 4 -21 1 -17 -16 3 -18 -1 -21 -28 -22 l-32 -1 30
-8 c23 -6 25 -8 9 -9 -12 0 -24 -8 -28 -16 -4 -12 3 -15 34 -15 40 0 40 0 39
-37 l-2 -38 -7 35 c-4 19 -8 27 -9 17 0 -10 -5 -15 -11 -12 -15 9 -12 -44 3
-59 7 -7 20 -12 30 -10 9 1 17 -4 17 -12 0 -8 -4 -14 -10 -14 -5 0 -10 -7 -10
-16 0 -8 -4 -12 -10 -9 -5 3 -10 3 -10 -2 0 -17 -48 -63 -65 -63 -17 0 -17 -1
2 -17 16 -16 17 -21 7 -42 -12 -24 -13 -24 -17 10 -3 25 -4 21 -5 -18 -2 -37
-6 -53 -15 -53 -8 0 -20 -11 -27 -25 -7 -14 -18 -25 -24 -25 -6 0 -20 -14 -31
-30 -11 -16 -26 -30 -32 -30 -7 0 -13 -9 -13 -21 0 -26 -26 -55 -33 -36 -3 6
-6 3 -6 -9 -1 -12 -14 -32 -30 -45 -16 -13 -29 -28 -28 -33 0 -18 -28 -46 -48
-46 -15 0 -17 -2 -6 -9 9 -6 10 -11 2 -15 -6 -4 -11 -14 -11 -22 0 -9 -7 -22
-15 -30 -8 -9 -15 -13 -15 -9 0 4 -12 -8 -27 -27 -49 -58 -71 -78 -75 -66 -7
19 -28 -2 -28 -28 0 -13 -4 -24 -10 -24 -5 0 -10 -5 -10 -11 0 -15 -26 -39
-34 -32 -3 4 -6 -3 -6 -15 0 -12 -4 -22 -10 -22 -5 0 -10 -7 -10 -15 0 -18
-26 -20 -33 -2 -3 7 -6 5 -6 -5 -1 -10 4 -18 10 -18 6 0 -3 -13 -21 -30 -33
-31 -50 -40 -33 -17 11 14 11 27 -1 46 -5 7 -5 16 0 20 5 3 10 12 12 19 1 7
15 26 31 43 30 31 45 66 31 74 -9 6 -50 -29 -50 -43 0 -6 -9 -14 -20 -17 -11
-4 -18 -10 -15 -15 3 -4 -13 -26 -34 -49 -26 -27 -41 -37 -44 -29 -3 7 -6 2
-6 -12 -1 -23 -36 -57 -53 -52 -5 1 -8 -7 -8 -18 0 -11 5 -20 10 -20 13 0 55
41 63 61 3 8 6 5 6 -10 1 -22 -27 -67 -62 -103 -8 -7 -19 -23 -26 -36 -10 -20
-9 -22 11 -23 13 0 17 -3 10 -6 -9 -3 -7 -10 9 -24 22 -19 22 -19 1 -19 -11 0
-23 -6 -25 -12 -3 -7 -6 -2 -6 12 -1 15 -4 20 -9 14 -4 -7 -16 -14 -27 -17
-17 -4 -16 -5 5 -6 20 -1 22 -3 10 -11 -10 -6 -11 -10 -2 -10 7 0 12 -13 11
-32 l-1 -33 -8 30 -8 30 -2 -30 -2 -30 -8 30 c-4 17 -8 22 -9 13 -1 -11 -9
-18 -21 -18 -11 0 -20 -7 -20 -15 0 -8 -4 -15 -10 -15 -5 0 -10 -8 -10 -17 0
-12 -3 -14 -8 -7 -5 9 -11 8 -20 -2 -7 -8 -8 -14 -2 -14 5 0 10 -8 9 -17 0
-11 -3 -13 -6 -5 -2 6 -12 12 -21 12 -15 0 -15 -2 -2 -10 13 -9 13 -10 0 -10
-13 0 -13 -1 0 -10 13 -9 13 -10 0 -11 -8 -1 -21 -1 -28 0 -12 2 -42 -22 -42
-34 0 -12 -27 -34 -34 -28 -3 4 -6 1 -6 -6 0 -7 -7 -19 -15 -28 -8 -8 -13 -19
-10 -24 4 -5 -4 -9 -17 -9 -18 0 -20 -2 -8 -10 10 -6 11 -10 3 -10 -7 0 -13
-10 -13 -22 0 -19 -2 -20 -10 -8 -6 10 -10 11 -10 3 0 -7 -6 -13 -13 -13 -8 0
-19 -10 -25 -22 -10 -22 -11 -22 -11 -2 -1 11 8 30 19 42 24 25 26 42 5 42 -8
0 -15 -9 -15 -20 0 -11 -4 -20 -10 -20 -5 0 -10 -7 -10 -15 0 -8 -4 -15 -10
-15 -5 0 -10 -8 -11 -17 0 -15 -2 -15 -9 2 -8 18 -9 18 -9 -6 -1 -28 -50 -62
-52 -36 -1 6 -5 -4 -9 -23 -7 -34 -7 -33 -9 14 l-1 48 -19 -23 c-18 -22 -18
-59 0 -59 14 0 10 -23 -7 -45 -15 -19 -16 -18 -9 13 6 28 4 32 -14 32 -12 0
-21 -4 -21 -10 0 -5 -8 -10 -17 -10 -15 0 -16 2 -3 10 8 5 11 10 5 11 -5 1 4
5 20 9 30 8 30 8 -8 9 -30 1 -38 5 -36 19 3 33 -1 42 -18 42 -15 0 -16 -2 -3
-10 13 -9 13 -10 0 -10 -13 0 -13 -1 0 -10 13 -8 12 -10 -2 -10 -12 0 -18 8
-18 21 0 18 -2 20 -15 9 -13 -11 -13 -15 -3 -21 9 -6 5 -9 -12 -10 l-25 -1 25
-8 25 -8 -25 -2 -25 -2 25 -8 c14 -4 19 -8 12 -9 -10 -1 -10 -4 0 -15 9 -10
15 -11 20 -2 6 8 8 8 8 -1 0 -8 15 -13 38 -14 20 0 31 -3 24 -6 -22 -9 -35
-43 -21 -59 11 -14 2 -19 -23 -15 -11 1 -10 -4 3 -33 9 -20 9 -29 -1 -41 -7
-8 -16 -12 -21 -9 -5 3 -9 -5 -9 -18 0 -18 -2 -20 -10 -8 -8 13 -10 13 -10 -2
0 -9 -6 -19 -12 -21 -10 -4 -9 -8 2 -16 10 -7 11 -11 3 -11 -7 0 -13 -9 -13
-21 0 -11 -4 -17 -10 -14 -5 3 -10 -3 -10 -15 0 -12 -7 -28 -15 -36 -13 -14
-15 -13 -16 3 0 10 -3 13 -6 5 -2 -6 -9 -9 -15 -6 -5 4 -9 -4 -8 -17 1 -13 2
-33 1 -44 -1 -17 -3 -18 -11 -5 -8 12 -10 10 -10 -8 0 -34 -23 -52 -67 -52
-28 0 -34 -3 -23 -10 10 -6 11 -10 3 -10 -7 0 -13 -8 -12 -17 0 -11 3 -13 6
-5 2 6 14 12 26 12 18 0 19 2 7 10 -11 7 -11 10 -2 10 7 0 19 -5 25 -12 10 -9
7 -18 -17 -43 -21 -21 -34 -29 -38 -21 -4 6 -8 -1 -8 -16 0 -16 -4 -28 -10
-28 -5 0 -10 -9 -10 -21 0 -11 5 -17 10 -14 6 3 10 2 10 -2 0 -5 -9 -14 -20
-21 -11 -7 -20 -17 -20 -23 0 -6 -7 -17 -15 -25 -8 -9 -15 -11 -15 -5 0 6 -8
11 -17 11 -15 0 -16 -2 -3 -10 13 -8 13 -10 1 -10 -12 0 -12 -3 -3 -12 17 -17
15 -49 -2 -42 -8 3 -17 13 -19 22 -3 10 -5 5 -6 -10 0 -16 4 -28 10 -28 6 0 9
-10 7 -22 -5 -39 -23 -21 -29 29 -5 45 -6 46 -7 11 -1 -21 -6 -38 -12 -38 -5
0 -11 -12 -11 -27 -1 -22 -2 -23 -6 -8 -3 11 -10 23 -17 27 -8 6 -7 8 2 8 6 0
12 7 12 15 0 8 -4 15 -10 15 -5 0 -10 7 -10 16 0 8 5 12 10 9 6 -3 10 1 10 9
0 9 12 16 33 19 l32 3 -32 8 c-28 7 -31 11 -23 31 5 13 6 26 3 29 -4 3 -1 6 6
6 7 0 10 4 7 9 -4 5 0 12 6 14 7 3 3 6 -10 6 -13 1 -20 -3 -17 -9 3 -5 2 -10
-4 -10 -10 0 -18 -20 -26 -61 -3 -12 -9 -27 -15 -33 -5 -5 -10 -18 -10 -28 0
-16 -11 -23 -32 -19 -5 0 -8 -10 -8 -23 0 -13 -4 -26 -10 -28 -12 -4 -18 -42
-6 -45 5 -1 13 -7 17 -15 6 -9 9 -7 9 10 0 18 5 22 28 21 22 -1 24 -2 7 -7
-24 -8 -34 -52 -11 -52 8 0 17 10 19 23 4 22 4 22 6 0 0 -12 9 -24 19 -26 9
-3 -2 -5 -25 -6 -24 0 -43 4 -43 9 0 14 -27 12 -33 -2 -3 -7 -6 -2 -6 12 -1
18 -4 21 -10 11 -7 -11 -9 -11 -14 0 -3 8 -5 -2 -6 -21 0 -28 2 -31 9 -15 7
15 9 8 11 -30 1 -31 4 -39 6 -22 2 15 11 27 19 27 9 0 14 -10 14 -27 0 -22 -2
-25 -10 -13 -8 12 -10 11 -10 -6 0 -12 -7 -21 -15 -21 -8 0 -16 10 -16 21 -1
17 -2 18 -6 4 -2 -10 -9 -18 -14 -18 -16 0 -10 -39 9 -49 15 -9 15 -10 -5 -11
-15 0 -23 7 -26 23 -4 19 -4 18 -6 -5 -1 -26 2 -28 39 -28 32 0 40 -4 39 -17
0 -11 -3 -13 -6 -5 -7 17 -81 15 -99 -2 -11 -11 -11 -16 -1 -19 9 -4 9 -6 0
-6 -7 -1 -13 -8 -13 -17 0 -8 -4 -12 -10 -9 -5 3 -10 -1 -10 -10 0 -9 4 -14 9
-10 5 3 12 -3 14 -12 3 -11 5 -7 6 10 0 16 5 26 11 22 6 -3 10 3 10 14 0 12 6
21 13 21 8 0 7 4 -3 10 -12 8 -10 10 8 10 13 0 20 -4 17 -10 -3 -6 4 -10 17
-11 15 0 18 -3 8 -6 -8 -3 -18 -11 -22 -17 -6 -8 -11 -6 -18 4 -8 13 -10 12
-10 -2 0 -10 6 -18 13 -18 8 0 7 -4 -3 -10 -12 -8 -10 -10 8 -10 13 0 20 4 17
10 -3 6 -2 10 3 10 18 0 21 -29 4 -33 -15 -4 -14 -5 2 -6 12 -1 16 -6 12 -17
-3 -9 -6 -22 -6 -30 0 -8 -6 -14 -14 -14 -8 0 -17 -12 -21 -27 -3 -15 -9 -23
-13 -17 -11 15 -31 15 -62 -1 -16 -8 -39 -16 -52 -16 -17 -1 -19 -2 -5 -6 9
-2 15 -9 12 -14 -4 -5 2 -9 12 -9 15 0 16 -2 3 -11 -11 -8 -6 -9 22 -5 21 2
40 0 43 -5 4 -5 -9 -10 -27 -10 -18 -1 -25 -3 -15 -6 9 -2 15 -9 12 -14 -4 -5
-2 -9 3 -9 5 0 9 -7 9 -15 0 -8 -6 -15 -14 -15 -9 0 -13 -16 -13 -55 0 -44 -4
-57 -20 -67 -11 -7 -20 -21 -20 -30 0 -23 -27 -23 -33 0 -4 13 -5 11 -6 -5 0
-13 4 -23 9 -23 6 0 10 -17 10 -37 0 -25 -3 -33 -9 -24 -7 11 -9 11 -14 0 -3
-8 -6 -3 -6 11 -1 18 -4 21 -10 11 -5 -7 -10 -9 -12 -3 -2 6 -9 4 -17 -4 -7
-8 -8 -14 -2 -14 5 0 10 -7 10 -16 0 -8 5 -12 10 -9 6 3 10 -1 10 -9 0 -9 -4
-16 -10 -16 -5 0 -10 -7 -10 -16 0 -8 5 -12 10 -9 6 3 10 1 10 -4 0 -6 -4 -11
-10 -11 -5 0 -10 -7 -10 -15 0 -8 -5 -15 -10 -15 -6 0 -8 -15 -4 -40 5 -33 4
-40 -10 -40 -9 0 -15 -3 -15 -7 1 -5 1 -14 0 -21 -2 -24 -31 14 -31 40 0 18 2
20 10 8 8 -13 10 -12 10 3 0 9 -5 17 -10 17 -16 0 -60 -47 -60 -63 0 -15 -19
-37 -33 -37 -4 0 -5 5 -1 12 4 6 3 8 -4 4 -5 -3 -12 0 -15 6 -2 7 -7 10 -10 7
-8 -6 40 -79 52 -79 4 0 5 15 3 32 -4 29 -3 31 11 20 9 -8 13 -20 10 -28 -3
-9 0 -12 8 -9 18 6 46 -11 36 -22 -5 -4 -12 -1 -17 7 -7 12 -12 12 -22 2 -16
-16 -14 -20 103 -168 79 -99 93 -113 107 -102 12 10 14 10 8 1 -4 -7 -2 -13 3
-13 15 0 13 21 -4 44 -8 11 -15 32 -15 48 0 26 2 28 44 28 38 0 45 -3 48 -22
3 -21 3 -21 15 3 6 13 14 36 17 52 4 18 13 27 26 27 11 0 20 5 20 10 0 6 7 10
16 10 28 0 44 27 44 76 0 37 5 51 25 70 19 18 26 36 30 86 6 73 25 161 35 168
20 13 57 110 53 137 -3 17 0 34 6 37 6 4 11 20 11 35 0 20 6 30 19 34 13 3 20
18 25 56 10 78 23 100 70 113 58 16 64 25 75 100 11 82 14 86 60 106 34 14 35
16 12 21 -21 6 -22 8 -7 20 9 7 16 23 16 35 0 25 18 51 40 59 12 4 11 6 -2 6
-10 1 -18 5 -18 10 0 20 13 41 25 41 14 0 25 22 25 51 0 11 10 23 23 28 34 14
64 52 77 99 6 24 17 45 24 48 8 3 16 23 20 45 3 21 11 39 16 39 6 0 19 15 30
33 11 17 30 34 42 37 19 5 24 14 28 50 4 37 9 46 28 48 12 2 22 10 22 18 0 8
5 14 10 14 6 0 10 16 10 35 0 28 4 35 20 35 11 0 20 5 20 12 0 7 26 36 57 65
41 38 68 76 97 135 l41 83 65 5 c85 7 157 53 162 103 2 27 9 34 37 42 33 10
33 10 29 64 -5 52 -4 54 24 65 21 8 28 17 28 37 0 21 6 28 30 33 23 4 30 11
30 30 0 13 7 29 15 36 11 9 15 34 15 92 0 85 12 122 62 191 15 21 32 63 39 94
8 32 19 57 28 61 9 3 26 16 38 29 15 16 33 23 58 23 19 0 35 4 35 8 0 16 54
35 115 41 55 6 60 8 63 32 3 22 -2 27 -28 33 -18 3 -30 11 -28 18 4 11 9 15
58 37 14 7 38 31 53 55 54 86 103 133 147 140 54 9 93 47 138 136 33 65 43 78
84 97 27 13 53 36 65 56 11 18 52 54 92 80 60 40 71 52 71 76 0 20 7 31 24 39
19 8 25 20 28 49 3 37 4 38 48 43 41 5 46 8 57 40 18 52 17 149 -2 156 -17 7
-20 55 -5 70 12 12 3 44 -11 44 -5 0 -9 9 -9 19 0 11 -9 23 -22 27 -12 4 -31
17 -41 30 -10 13 -24 24 -30 24 -8 0 -7 -3 2 -9z"/>
<path d="M10850 11971 c-14 -15 -37 -36 -52 -45 -29 -19 -38 -46 -15 -46 8 0
7 -3 -3 -10 -9 -6 -17 -5 -22 3 -5 7 -8 3 -8 -11 0 -13 -7 -30 -15 -38 -9 -10
-15 -11 -15 -4 0 6 -19 -8 -42 -32 -32 -33 -38 -44 -25 -46 10 -2 17 -10 17
-18 0 -17 -26 -19 -33 -1 -3 7 -6 5 -6 -5 -1 -10 4 -18 9 -18 6 0 10 -8 10
-17 0 -15 -2 -16 -10 -3 -8 12 -10 11 -10 -7 0 -13 -4 -23 -10 -23 -5 0 -10
-6 -10 -13 0 -8 7 -14 15 -14 8 0 15 7 15 15 0 11 3 12 13 3 15 -12 37 3 37
26 0 7 4 13 10 13 5 0 14 15 20 33 l10 32 -3 -31 c-3 -28 -1 -30 20 -20 16 8
18 12 8 14 -30 7 -16 32 18 33 27 0 29 2 12 9 -20 9 -20 9 0 9 11 1 26 10 32
21 11 16 10 18 -2 14 -10 -4 -15 0 -15 10 0 23 24 30 50 16 l22 -12 -21 -19
c-26 -24 -26 -29 -2 -29 11 0 21 9 25 23 5 18 8 20 16 7 6 -9 10 -10 10 -3 0
6 -5 15 -10 18 -6 3 -17 19 -24 34 l-15 28 41 1 c51 2 64 12 17 12 -26 0 -30
3 -19 10 13 9 13 10 0 11 -8 1 -1 5 15 9 29 7 29 8 -10 10 -22 1 -32 4 -22 7
9 2 15 9 12 14 -4 5 3 9 15 9 12 0 19 4 15 9 -3 5 3 12 12 14 10 3 2 6 -17 7
-34 3 -34 3 10 10 l45 7 -45 1 c-37 1 -49 -4 -70 -27z"/>
<path d="M10483 11525 c-7 -8 -14 -44 -15 -82 l-1 -68 -7 60 c-4 33 -7 50 -8
37 -1 -13 -6 -20 -12 -17 -5 3 -10 -1 -10 -10 0 -9 -4 -13 -10 -10 -5 3 -10
-3 -10 -15 0 -20 1 -21 18 -4 16 17 17 16 20 -11 2 -15 -2 -32 -10 -37 -10 -7
-9 -8 5 -4 9 3 17 1 17 -4 0 -6 -5 -10 -11 -10 -5 0 -7 -4 -4 -10 4 -6 -5 -10
-19 -10 -14 0 -26 5 -26 10 0 6 -7 10 -15 10 -8 0 -15 -4 -15 -10 0 -5 -8 -10
-17 -10 -15 0 -16 2 -3 10 13 8 12 10 -2 10 -10 0 -18 -5 -18 -11 0 -5 -4 -7
-10 -4 -6 3 -10 -4 -9 -17 0 -13 3 -17 6 -10 2 6 12 12 21 11 11 0 12 -2 5 -6
-22 -8 -15 -33 10 -32 16 1 18 2 5 6 -16 4 -16 6 -4 19 22 21 45 18 39 -6 -4
-15 0 -20 14 -20 10 0 25 9 33 20 8 11 26 21 40 21 23 2 23 2 2 6 -19 4 -20 6
-8 19 8 8 22 14 31 14 9 0 13 5 10 10 -3 6 -1 10 6 10 6 0 9 8 6 20 -4 17 -2
20 14 15 10 -4 19 -2 19 4 0 6 -12 14 -27 17 -35 9 -53 27 -53 53 0 13 6 21
18 21 14 0 15 -2 2 -10 -13 -9 -13 -10 0 -10 13 0 13 -1 0 -10 -12 -8 -10 -10
8 -10 28 0 59 26 39 33 -6 3 6 6 28 8 29 1 33 3 15 6 -14 3 -28 10 -32 17 -5
7 -8 7 -8 0 0 -6 -7 -11 -15 -11 -8 0 -15 4 -15 9 0 13 -24 9 -37 -7z"/>
<path d="M4301 11042 c-5 -27 -13 -78 -17 -113 l-6 -65 63 -12 c34 -6 65 -10
67 -7 6 6 32 163 32 193 0 26 -49 52 -99 52 -27 0 -30 -4 -40 -48z"/>
<path d="M4886 10979 c-27 -4 -52 -13 -56 -20 -12 -18 -40 -170 -34 -180 12
-20 24 -7 35 36 9 37 15 45 35 45 31 0 36 -12 25 -59 -7 -31 -5 -41 5 -45 18
-7 22 1 44 101 30 135 30 135 -54 122z"/>
<path d="M5016 10958 c-3 -7 -14 -58 -25 -112 -16 -76 -18 -102 -9 -107 20
-12 24 -4 38 73 19 107 25 121 34 73 39 -214 58 -226 93 -61 13 60 21 111 19
114 -16 16 -35 -14 -46 -75 -21 -114 -26 -117 -45 -28 -9 44 -20 91 -24 104
-8 28 -29 39 -35 19z"/>
<path d="M5226 10888 c-25 -61 -49 -179 -39 -189 5 -5 32 -12 60 -15 l50 -6
22 93 c13 52 24 100 27 107 4 13 -19 25 -74 37 -30 6 -33 4 -46 -27z"/>
<path d="M5686 10802 c-17 -56 -56 -202 -56 -207 0 -4 7 -5 17 -3 9 2 22 19
28 38 12 34 39 50 56 33 5 -5 4 -25 -2 -47 -7 -27 -7 -42 0 -49 16 -16 19 -9
51 104 35 124 35 119 12 119 -15 0 -22 -13 -31 -55 -12 -54 -21 -62 -54 -49
-13 5 -13 12 -1 57 17 64 17 64 0 70 -9 4 -17 -1 -20 -11z"/>
<path d="M6095 10690 c-8 -14 -65 -181 -65 -192 0 -12 64 -38 93 -38 21 0 27
11 56 102 17 56 28 104 24 108 -10 9 -72 30 -89 30 -7 0 -16 -5 -19 -10z"/>
<path d="M6242 10544 c-18 -59 -31 -109 -28 -111 9 -9 111 -29 128 -25 9 2 20
12 23 22 7 22 -20 80 -37 80 -6 0 1 11 16 25 26 24 31 40 20 70 -7 17 -54 45
-77 45 -8 0 -25 -40 -45 -106z"/>
<path d="M4592 10590 c2 -7 40 -26 83 -42 207 -77 276 -100 345 -119 41 -11
85 -27 97 -35 12 -8 36 -14 53 -14 17 0 47 -7 67 -15 41 -17 62 -20 47 -6 -5
6 -43 19 -84 30 -41 11 -102 30 -135 41 -33 12 -74 25 -90 29 -17 4 -42 14
-55 21 -14 7 -50 21 -80 31 -30 9 -46 18 -35 18 15 1 11 5 -14 16 -39 18 -44
18 -36 6 3 -6 -3 -9 -14 -8 -23 1 -17 15 13 28 17 8 16 9 -11 5 -17 -3 -33 -1
-35 4 -2 5 -29 12 -62 16 -45 6 -58 4 -54 -6z"/>
<path d="M7063 10363 c-4 -10 -21 -56 -39 -102 -19 -46 -31 -88 -28 -92 3 -5
24 -14 47 -20 23 -7 48 -17 55 -22 7 -5 14 -8 15 -6 6 8 37 85 61 151 22 58
23 67 9 72 -9 4 -17 5 -18 4 0 -2 -17 -45 -35 -95 -34 -92 -49 -110 -84 -97
-22 8 -21 13 19 120 19 51 35 96 35 99 0 13 -31 3 -37 -12z"/>
<path d="M7403 10212 c-8 -20 -28 -66 -44 -101 -33 -73 -35 -81 -14 -81 8 0
24 18 35 40 19 37 22 39 45 28 l24 -11 -20 -39 c-19 -38 -18 -58 2 -58 11 0
84 150 95 194 5 20 2 26 -10 26 -9 0 -24 -20 -37 -50 -21 -50 -32 -57 -58 -41
-12 8 -11 16 4 53 9 23 19 48 22 54 2 6 -3 14 -12 18 -12 4 -20 -4 -32 -32z"/>
<path d="M5264 10193 c-8 -21 -19 -46 -25 -57 -6 -10 -21 -50 -33 -90 -13 -39
-30 -85 -39 -102 -9 -17 -34 -83 -56 -148 -22 -65 -47 -132 -54 -149 -8 -18
-29 -72 -46 -122 -18 -49 -43 -117 -55 -150 -29 -75 -101 -307 -153 -490 -8
-27 -18 -63 -23 -80 -28 -94 -83 -323 -109 -451 -42 -211 -59 -330 -71 -511
-6 -87 -13 -183 -15 -213 -15 -157 -34 -424 -31 -427 4 -5 13 71 21 177 3 41
10 109 15 150 5 41 14 163 20 271 6 108 15 223 21 255 5 32 16 100 25 149 23
141 30 174 59 275 15 52 30 118 35 145 4 28 20 85 34 129 14 43 26 86 26 96 0
9 6 30 14 46 8 16 26 72 40 124 13 52 34 119 45 148 12 29 21 63 21 75 0 13
11 45 24 73 13 27 36 90 51 139 14 50 33 106 42 125 9 19 28 69 43 110 15 41
42 113 60 160 18 47 47 126 64 175 17 50 35 95 39 102 11 17 36 103 31 103 -3
0 -12 -17 -20 -37z"/>
<path d="M5850 9421 c-18 -10 -114 -23 -191 -26 -67 -3 -79 -9 -79 -39 0 -26
78 -116 101 -116 9 0 34 -18 57 -41 23 -22 46 -38 52 -34 5 3 10 1 10 -6 0 -7
3 -9 7 -6 10 11 32 -26 33 -54 0 -34 67 -112 91 -106 12 3 21 -4 30 -24 15
-38 59 -73 73 -59 15 15 42 12 56 -5 10 -12 10 -19 2 -27 -7 -7 -12 -15 -12
-18 0 -9 53 -5 125 10 33 7 98 18 145 24 l85 12 -70 22 c-38 12 -79 26 -90 31
-90 40 -116 51 -121 51 -15 0 -131 64 -164 90 -20 16 -49 53 -64 84 l-28 55
29 25 c37 33 117 36 156 6 14 -11 31 -20 39 -20 8 0 18 -4 24 -9 14 -14 67
-17 71 -5 2 6 -14 19 -37 28 -24 9 -44 26 -49 39 -10 27 -78 66 -177 101 -78
29 -82 29 -104 17z"/>
<path d="M9385 8550 c-12 -4 -62 -49 -113 -98 -120 -119 -258 -327 -349 -525
-35 -78 -68 -151 -74 -162 -32 -70 -78 -250 -98 -390 -21 -143 -8 -405 20
-405 5 0 9 72 8 163 0 213 16 292 109 542 73 195 119 286 228 450 90 135 231
296 313 357 33 25 33 26 16 52 -18 27 -27 30 -60 16z"/>
<path d="M9730 7912 c-89 -53 -139 -92 -195 -154 -129 -143 -190 -296 -211
-533 -4 -44 -8 -87 -10 -95 -1 -8 -3 -32 -3 -53 -1 -21 -5 -36 -9 -33 -5 3 -7
18 -4 34 2 17 -1 33 -8 37 -10 6 -12 -7 -8 -54 3 -39 10 -66 19 -72 22 -14 27
-11 22 14 -7 36 25 336 42 395 8 28 21 73 28 100 36 127 164 295 272 357 62
36 131 85 119 84 -5 0 -29 -12 -54 -27z"/>
<path d="M4740 7901 c0 -41 50 -133 88 -159 44 -32 160 -86 267 -127 55 -20
115 -43 133 -51 19 -8 32 -10 32 -4 0 12 -7 15 -150 65 -110 39 -116 42 -109
50 3 2 26 -2 51 -10 53 -16 85 -11 93 15 13 40 100 35 210 -10 62 -26 110 -34
207 -33 113 2 131 7 188 56 55 48 44 114 -12 71 -7 -6 -37 -24 -67 -40 -50
-26 -63 -29 -150 -28 -73 0 -110 6 -156 23 -108 40 -256 81 -306 86 -47 3 -50
2 -89 -42 l-40 -46 -44 31 c-24 18 -48 32 -53 33 -15 1 -55 59 -74 107 l-18
47 -1 -34z"/>
<path d="M6839 7798 l-1 -33 -8 30 c-4 17 -8 22 -9 13 -1 -12 -10 -19 -28 -20
-16 -1 -35 -2 -43 -4 -8 -1 -19 -2 -25 -3 -5 -1 -3 -6 5 -11 13 -8 12 -10 -2
-10 -10 0 -18 5 -18 10 0 26 -86 -3 -96 -32 -3 -10 -11 -18 -17 -18 -7 0 -6
-4 3 -10 13 -9 13 -10 0 -11 -8 -1 -2 -4 15 -8 16 -3 48 -4 70 -2 32 3 36 5
20 12 -16 6 -13 8 15 8 26 1 31 4 20 11 -11 7 -4 9 25 8 23 0 30 -3 18 -5 -27
-5 -29 -18 -8 -39 13 -14 15 -13 16 8 1 20 2 20 6 3 6 -20 59 -75 74 -75 5 0
9 -7 9 -15 0 -9 9 -15 22 -15 12 0 19 3 15 6 -8 8 20 37 30 31 5 -3 14 1 21 9
7 8 10 14 6 14 -3 0 -1 7 7 16 7 9 14 25 14 37 1 11 7 23 13 25 17 5 15 22 -3
22 -9 0 -15 10 -16 23 -1 17 -2 18 -6 4 -7 -28 -39 -16 -35 13 2 18 0 21 -6
11 -8 -11 -11 -9 -17 8 -8 27 -25 18 -25 -14 0 -13 -6 -25 -12 -28 -10 -3 -10
-9 0 -26 15 -26 16 -53 1 -31 -9 12 -10 11 -6 -7 3 -13 1 -23 -4 -23 -5 0 -9
9 -9 21 0 11 -4 17 -10 14 -5 -3 -10 3 -10 14 0 12 5 21 10 21 6 0 10 9 10 21
0 11 5 17 10 14 6 -3 10 4 10 16 0 12 -3 19 -6 16 -4 -3 -15 -2 -25 4 -17 8
-19 6 -20 -23z"/>
<path d="M6300 7316 c0 -13 5 -26 11 -28 6 -2 7 -11 3 -22 -7 -18 -8 -18 -21
0 -12 17 -13 17 -13 -5 0 -12 7 -36 16 -53 12 -23 18 -28 24 -17 8 11 10 11
14 -1 4 -14 14 -69 18 -97 1 -7 5 -13 10 -13 4 0 7 -3 6 -7 -1 -5 1 -23 5 -41
7 -33 26 -40 35 -12 3 7 0 10 -7 6 -18 -12 -13 9 9 32 12 12 18 23 15 23 -3 1
-9 3 -15 4 -5 1 -14 3 -18 4 -5 0 -9 7 -9 14 0 6 -4 20 -8 30 -4 10 -3 17 4
17 19 0 12 42 -11 61 l-21 19 21 0 c13 0 22 6 22 15 0 8 -8 15 -17 15 -15 0
-16 -2 -3 -10 13 -8 13 -10 -1 -10 -12 0 -18 11 -21 35 -4 39 -3 41 18 21 11
-11 11 -16 1 -19 -9 -4 -9 -6 1 -6 7 -1 20 6 28 14 14 13 14 15 0 15 -9 0 -16
5 -16 10 0 6 -17 10 -37 11 -34 1 -35 2 -13 9 l25 8 -27 1 c-23 1 -28 -3 -28
-23z"/>
<path d="M4930 7241 c-5 -11 -10 -28 -10 -38 1 -11 6 -6 15 15 15 35 35 41 55
17 16 -19 16 -6 2 -345 -10 -271 -4 -557 17 -730 l9 -75 -5 85 c-7 116 -9 743
-3 911 5 125 3 139 -14 158 -24 26 -52 27 -66 2z"/>
<path d="M6090 7191 c0 -19 -2 -20 -20 -9 -29 18 -45 -8 -25 -39 19 -28 19
-33 0 -33 -8 0 -15 -7 -15 -15 0 -9 -10 -15 -26 -15 -36 0 -21 -16 23 -25 97
-18 90 -50 -9 -46 -73 3 -344 38 -357 46 -5 3 -46 7 -90 10 -46 2 -95 12 -112
21 -26 13 -33 14 -41 2 -6 -9 -11 -9 -14 -2 -5 11 -54 7 -54 -5 0 -3 20 -27
44 -53 48 -50 79 -63 181 -73 70 -7 75 -7 136 1 27 3 56 1 68 -5 11 -6 53 -14
93 -17 80 -6 139 -21 150 -38 4 -5 5 -32 2 -59 -3 -30 0 -55 7 -63 15 -19 7
-26 -57 -47 -46 -16 -53 -16 -88 -2 -35 15 -38 15 -63 -4 -35 -28 -88 -37
-115 -19 -19 13 -26 13 -50 0 -40 -20 -231 -7 -251 17 -20 23 -39 99 -48 194
-7 78 -8 77 -3 -23 5 -128 17 -173 51 -199 20 -16 35 -20 67 -16 29 4 35 3 21
-4 -26 -11 -115 -107 -115 -123 0 -7 8 -1 17 12 9 14 24 29 32 34 8 5 27 23
42 39 22 24 32 28 56 23 17 -4 68 -2 114 3 46 6 122 13 169 16 90 5 250 42
250 57 0 5 9 4 21 -2 19 -11 66 -6 99 10 8 4 27 12 41 18 24 9 26 16 32 88 4
52 2 83 -5 92 -9 10 -8 16 3 22 12 8 10 17 -11 55 -14 25 -37 58 -51 73 -14
15 -42 49 -62 75 -29 38 -37 44 -37 28z"/>
<path d="M9125 5681 c-3 -5 -27 -17 -53 -27 -26 -10 -50 -22 -53 -27 -4 -5
-18 -10 -32 -10 -14 -1 -23 -5 -21 -9 3 -4 -17 -13 -43 -21 -26 -8 -74 -26
-105 -41 -31 -14 -59 -26 -61 -26 -3 0 -47 -20 -98 -43 -52 -24 -110 -50 -129
-57 -19 -7 -63 -26 -98 -42 -35 -15 -70 -28 -78 -28 -8 0 -14 -4 -14 -9 0 -5
-14 -13 -32 -16 -17 -4 -38 -14 -46 -21 -7 -8 -20 -14 -28 -14 -8 0 -14 -4
-14 -8 0 -5 -19 -14 -42 -21 -24 -7 -53 -19 -64 -26 -29 -19 -422 -175 -440
-175 -8 0 -197 -69 -379 -138 -287 -109 -846 -285 -1200 -377 -274 -71 -320
-84 -464 -131 -58 -19 -114 -34 -125 -34 -21 0 -123 -23 -421 -96 -82 -20
-170 -41 -195 -46 -25 -5 -61 -13 -80 -18 -41 -10 -150 -30 -200 -37 -42 -6
-59 -24 -52 -58 3 -19 11 -25 31 -25 44 0 203 21 246 32 22 6 92 21 155 35 63
13 153 32 200 42 47 10 117 28 155 40 39 12 93 26 120 32 53 10 359 90 535
141 58 17 164 45 235 63 150 38 263 70 296 84 13 6 87 29 164 51 182 54 368
117 585 196 96 36 238 87 315 116 155 56 286 108 415 163 90 39 205 87 335
140 131 52 237 103 475 224 124 63 262 133 308 155 45 22 82 43 82 46 0 9 -47
30 -65 30 -8 0 -16 -4 -20 -9z"/>
</g>
</svg>
